<?xml version="1.0" encoding="utf-8"?>
<!-- Generator: Adobe Illustrator 16.0.0, SVG Export Plug-In . SVG Version: 6.00 Build 0)  -->
<!DOCTYPE svg PUBLIC "-//W3C//DTD SVG 1.1//EN" "http://www.w3.org/Graphics/SVG/1.1/DTD/svg11.dtd">
<svg version="1.1" id="Layer_1" xmlns="http://www.w3.org/2000/svg" xmlns:xlink="http://www.w3.org/1999/xlink" x="0px" y="0px"
	 width="422.637px" height="445.217px" viewBox="0 0 422.637 445.217" enable-background="new 0 0 422.637 445.217"
	 xml:space="preserve">
<g id="Image_1_" transform="translate(148.000000, 155.000000)">
	<g>
		<title>modern_design</title>
		<ellipse opacity="0.1" fill="#337AE2" cx="63.318" cy="279.411" rx="211.318" ry="10.806"/>
		<path fill="#FFB8B8" d="M241.985,121.515v2.615c0,0,4.707,16.74-1.047,16.74s-7.846-16.217-7.846-16.217v-3.139H241.985z"/>
		<path fill="#FFB8B8" d="M137.367,61.882l1.045-4.186c0,0,5.755-13.076,10.463-10.46c4.708,2.616-2.093,12.553-2.093,12.553
			l-1.046,2.616L137.367,61.882z"/>
		<polygon fill="#FFB8B8" points="170.846,249.149 171.891,258.04 181.829,259.61 181.829,248.103 		"/>
		<polygon fill="#FFB8B8" points="225.77,246.532 226.815,259.61 238.323,258.04 236.231,245.487 		"/>
		<polygon fill="#2F2E41" points="166.138,147.147 164.044,147.669 169.798,203.116 169.798,252.812 184.444,250.194 
			191.768,162.839 214.261,205.731 225.246,249.149 242.509,246.011 228.384,191.609 218.97,139.823 		"/>
		<path fill="#2F2E41" d="M176.599,254.902c0,0-4.708-3.138-6.277-1.045c-1.569,2.092-8.369,12.554-8.369,12.554
			s-16.738,17.262,0,16.738c0,0,10.984,0,13.077-6.277c0,0,0.524-3.138,4.185-3.138c3.662,0,7.847-3.663,7.847-5.755
			s-3.662-12.656-5.231-11.035C180.261,258.564,176.599,254.902,176.599,254.902z"/>
		<path fill="#2F2E41" d="M232.758,254.902c0,0,4.708-3.138,6.277-1.045c1.568,2.092,8.369,12.554,8.369,12.554
			s16.738,17.262,0,16.738c0,0-10.984,0-13.077-6.277c0,0-0.524-3.138-4.184-3.138c-3.662,0-7.848-3.663-7.848-5.755
			s3.662-12.656,5.23-11.035C229.096,258.564,232.758,254.902,232.758,254.902z"/>
		<circle fill="#FFB8B8" cx="167.444" cy="45.405" r="13.807"/>
		<polygon fill="#FFB8B8" points="166.399,56.39 173.723,65.282 186.799,54.297 177.385,46.975 		"/>
		<path fill="#D0CDE1" d="M170.321,65.544l0.428-3.871l14.684-8.437l19.95-1.894c2.591-0.246,4.891,1.656,5.137,4.247v0.001
			l7.403,78.478l2.615,6.801c0,0-46.032,26.152-56.494,6.799l7.847-40.8l-16.216-30.862L170.321,65.544z"/>
		<path fill="#D0CDE1" d="M205.892,52.467c0.319-0.053,0.633-0.143,0.932-0.266c1.971-0.709,4.171-0.039,5.411,1.648l23.474,32.096
			l8.892,37.139h-12.554l-8.369-25.108l-13.601-17.785L205.892,52.467z"/>
		<polygon fill="#D0CDE1" points="159.859,74.96 155.675,76.006 143.12,86.991 147.306,61.882 136.844,59.79 128.735,101.899 
			134.491,107.653 167.184,94.313 		"/>
		<path fill="#2F2E41" d="M172.943,45.36c0,0-5.671-8.329-8.919-5.586c-3.245,2.743-12.345,8.123-14.265,3.865
			c-1.917-4.258,5.453-12.059,11.016-13.924s15.329-4.343,18.392,3.88c1.846,5.218,2.46,10.789,1.799,16.283L172.943,45.36z"/>
		
			<ellipse transform="matrix(-0.3418 -0.9398 0.9398 -0.3418 189.8465 221.8045)" fill="#FFB8B8" cx="172.593" cy="44.423" rx="2.701" ry="1.5"/>
		<path fill="#3F3D56" d="M108.944-51.174h-2.401v-65.764c0-21.021-17.042-38.062-38.062-38.062l0,0h-139.33
			c-21.021,0-38.063,17.041-38.063,38.062l0,0v360.785c0,21.021,17.042,38.063,38.063,38.063l0,0h139.33
			c21.02,0,38.062-17.042,38.062-38.063l0,0V-4.362h2.401V-51.174z"/>
		<path fill="#FFFFFF" d="M70.016-145.098H51.829c2.817,6.906-0.497,14.789-7.404,17.604c-1.617,0.659-3.349,1-5.099,1h-79.82
			c-7.458,0-13.503-6.047-13.503-13.505c0-1.749,0.341-3.48,1-5.099h-16.987c-15.698,0-28.423,12.726-28.423,28.425l0,0v360.255
			c0,15.698,12.725,28.425,28.423,28.425l0,0h140c15.699,0,28.426-12.727,28.426-28.425l0,0v-360.255
			C98.441-132.372,85.715-145.098,70.016-145.098z"/>
		<rect x="-30.143" y="-48.318" fill="#FFC400" width="49.624" height="4.608"/>
		<rect x="-30.143" y="-32.377" fill="#E6E6E6" width="86.489" height="4.608"/>
		<rect x="-30.143" y="-16.436" fill="#E6E6E6" width="86.404" height="4.608"/>
		<rect x="-77.292" y="-48.25" fill="#FFC400" width="36.866" height="36.867"/>
		<rect x="-30.143" y="48.455" fill="#049F34" width="49.624" height="4.608"/>
		<rect x="-30.143" y="64.396" fill="#E6E6E6" width="86.489" height="4.609"/>
		<rect x="-30.143" y="80.337" fill="#E6E6E6" width="86.404" height="4.608"/>
		<rect x="-77.292" y="48.524" fill="#049F34" width="36.866" height="36.866"/>
		<rect x="-30.143" y="145.229" fill="#ED2631" width="49.624" height="4.608"/>
		<rect x="-30.143" y="161.169" fill="#E6E6E6" width="86.489" height="4.609"/>
		<rect x="-30.143" y="177.112" fill="#E6E6E6" width="86.404" height="4.607"/>
		<rect x="-77.292" y="145.298" fill="#ED2631" width="36.866" height="36.865"/>
	</g>
</g>
</svg>
